<svg width="145" height="35" viewBox="0 0 145 35" fill="none" xmlns="http://www.w3.org/2000/svg">
<path d="M142.548 15.2871C141.457 15.2871 140.607 14.4272 140.607 13.3829C140.607 12.3387 141.468 11.4689 142.559 11.4689C143.65 11.4689 144.5 12.3286 144.5 13.3721C144.5 14.4163 143.639 15.2871 142.548 15.2871ZM142.559 11.6582C141.564 11.6582 140.811 12.4335 140.811 13.3829C140.811 14.3319 141.559 15.0967 142.548 15.0967C143.543 15.0967 144.295 14.3221 144.295 13.3721C144.295 12.4231 143.547 11.6582 142.559 11.6582ZM142.989 13.5679L143.539 14.3219H143.074L142.58 13.6301H142.156V14.3219H141.768V12.3232H142.676C143.151 12.3232 143.462 12.5608 143.462 12.9608C143.464 13.2885 143.27 13.4887 142.991 13.5679H142.989ZM142.661 12.6661H142.156V13.2983H142.661C142.912 13.2983 143.064 13.1773 143.064 12.9819C143.064 12.7763 142.912 12.6661 142.661 12.6661Z" fill="white"/>
<path d="M17.8455 0C7.98992 0 0 7.83515 0 17.5001C0 27.1655 7.98992 35 17.8455 35C27.7022 35 35.6912 27.1655 35.6912 17.5001C35.6912 7.83578 27.7024 0 17.8455 0ZM26.0294 25.2402C25.9532 25.3625 25.8532 25.469 25.735 25.5534C25.6169 25.6378 25.4829 25.6986 25.3408 25.7321C25.1987 25.7657 25.0512 25.7715 24.9068 25.7491C24.7624 25.7267 24.6239 25.6766 24.4993 25.6017C20.3094 23.0919 15.0347 22.5235 8.82292 23.9153C8.53528 23.9794 8.23345 23.9289 7.98374 23.7749C7.73404 23.6209 7.55691 23.376 7.49127 23.094C7.45857 22.9543 7.45429 22.8098 7.47866 22.6685C7.50303 22.5272 7.55558 22.3921 7.63329 22.2707C7.711 22.1494 7.81236 22.0443 7.93155 21.9615C8.05074 21.8786 8.18542 21.8196 8.32789 21.7879C15.1257 20.2649 20.9568 20.9206 25.6607 23.7397C26.1849 24.0553 26.3511 24.7261 26.0294 25.2402ZM28.2136 20.4751C27.8109 21.1171 26.9542 21.3198 26.3 20.9248C21.5031 18.0334 14.1911 17.196 8.51734 18.885C7.78151 19.103 7.00434 18.6963 6.78101 17.9759C6.67445 17.6296 6.71228 17.256 6.88621 16.937C7.06014 16.618 7.35598 16.3797 7.70884 16.2742C14.1898 14.3458 22.2468 15.2799 27.7554 18.5995C28.4097 18.9945 28.6164 19.8344 28.2136 20.4751ZM28.4011 15.5132C22.6496 12.1631 13.1603 11.855 7.66899 13.4894C6.78719 13.7517 5.85467 13.2635 5.58744 12.3988C5.45895 11.9833 5.50397 11.5348 5.71261 11.1519C5.92125 10.769 6.27642 10.483 6.70003 10.3569C13.0037 8.48026 23.4828 8.84284 30.1046 12.6978C30.2934 12.8073 30.4582 12.9522 30.5897 13.1243C30.7213 13.2963 30.8169 13.4921 30.8711 13.7005C30.9254 13.9088 30.9372 14.1256 30.9058 14.3385C30.8745 14.5513 30.8007 14.756 30.6885 14.9408C30.2197 15.7186 29.1917 15.975 28.4011 15.5132Z" fill="white"/>
<path d="M51.8555 14.8047V17.7578H43.0195V14.8047H51.8555ZM44.2266 7.9375V25H40.4062V7.9375H44.2266ZM54.4922 7.9375V25H50.6836V7.9375H54.4922ZM59.7961 12.3203V25H56.1281V12.3203H59.7961ZM55.9055 9.03906C55.9055 8.50781 56.093 8.07422 56.468 7.73828C56.843 7.39453 57.3352 7.22266 57.9445 7.22266C58.5539 7.22266 59.0461 7.39453 59.4211 7.73828C59.8039 8.07422 59.9953 8.50781 59.9953 9.03906C59.9953 9.5625 59.8039 9.99609 59.4211 10.3398C59.0461 10.6758 58.5539 10.8438 57.9445 10.8438C57.3352 10.8438 56.843 10.6758 56.468 10.3398C56.093 9.99609 55.9055 9.5625 55.9055 9.03906ZM66.5297 22.3867C66.9203 22.3867 67.2602 22.3125 67.5492 22.1641C67.8383 22.0156 68.0609 21.8086 68.2172 21.543C68.3813 21.2695 68.4633 20.9414 68.4633 20.5586H71.9086C71.9086 21.4805 71.6703 22.293 71.1938 22.9961C70.725 23.6992 70.0922 24.25 69.2953 24.6484C68.4984 25.0391 67.6 25.2344 66.6 25.2344C65.6156 25.2344 64.7563 25.0742 64.0219 24.7539C63.2875 24.4258 62.6742 23.9688 62.182 23.3828C61.6898 22.7969 61.3188 22.1172 61.0688 21.3438C60.8266 20.5625 60.7055 19.7188 60.7055 18.8125V18.5078C60.7055 17.6094 60.8266 16.7695 61.0688 15.9883C61.3188 15.207 61.6898 14.5234 62.182 13.9375C62.6742 13.3516 63.2836 12.8984 64.0102 12.5781C64.7445 12.25 65.6039 12.0859 66.5883 12.0859C67.6273 12.0859 68.5453 12.2852 69.3422 12.6836C70.1469 13.082 70.7758 13.6562 71.2289 14.4062C71.682 15.1484 71.9086 16.043 71.9086 17.0898H68.4633C68.4633 16.6836 68.3891 16.3203 68.2406 16C68.1 15.6719 67.8813 15.4141 67.5844 15.2266C67.2953 15.0312 66.9359 14.9336 66.5063 14.9336C66.0609 14.9336 65.6938 15.0312 65.4047 15.2266C65.1234 15.4141 64.9086 15.6758 64.7602 16.0117C64.6117 16.3477 64.5102 16.7305 64.4555 17.1602C64.4008 17.582 64.3734 18.0312 64.3734 18.5078V18.8125C64.3734 19.2969 64.4008 19.7578 64.4555 20.1953C64.5102 20.625 64.6117 21.0039 64.7602 21.332C64.9164 21.6602 65.1352 21.918 65.4164 22.1055C65.6977 22.293 66.0688 22.3867 66.5297 22.3867ZM76.0992 7V25H72.443V7H76.0992ZM75.6188 18.2148L74.7047 18.2383C74.7047 17.3477 74.8141 16.5312 75.0328 15.7891C75.2594 15.0391 75.5797 14.3867 75.9938 13.832C76.4078 13.2773 76.9039 12.8477 77.482 12.543C78.068 12.2383 78.7125 12.0859 79.4156 12.0859C80.0406 12.0859 80.6109 12.1758 81.1266 12.3555C81.6422 12.5352 82.0875 12.8203 82.4625 13.2109C82.8375 13.6016 83.1266 14.1133 83.3297 14.7461C83.5328 15.3789 83.6344 16.1484 83.6344 17.0547V25H79.9547V17.0312C79.9547 16.4922 79.8766 16.0703 79.7203 15.7656C79.5719 15.4609 79.3531 15.2461 79.0641 15.1211C78.7828 14.9961 78.4391 14.9336 78.0328 14.9336C77.5563 14.9336 77.1617 15.0195 76.8492 15.1914C76.5367 15.3555 76.2906 15.5859 76.1109 15.8828C75.9313 16.1797 75.8023 16.5273 75.7242 16.9258C75.6539 17.3242 75.6188 17.7539 75.6188 18.2148ZM90.8016 25.2344C89.7938 25.2344 88.8914 25.0742 88.0945 24.7539C87.2977 24.4336 86.6219 23.9922 86.0672 23.4297C85.5203 22.8594 85.1023 22.2031 84.8133 21.4609C84.5242 20.7188 84.3797 19.9258 84.3797 19.082V18.6367C84.3797 17.6914 84.5125 16.8203 84.7781 16.0234C85.0438 15.2266 85.4305 14.5352 85.9383 13.9492C86.4539 13.3555 87.0867 12.8984 87.8367 12.5781C88.5867 12.25 89.4422 12.0859 90.4031 12.0859C91.3016 12.0859 92.1023 12.2344 92.8055 12.5312C93.5086 12.8203 94.1023 13.2383 94.5867 13.7852C95.0711 14.3242 95.4383 14.9766 95.6883 15.7422C95.9461 16.5 96.075 17.3516 96.075 18.2969V19.7969H85.8563V17.4414H92.4891V17.1602C92.4891 16.7148 92.407 16.3242 92.243 15.9883C92.0867 15.6523 91.8523 15.3945 91.5398 15.2148C91.2352 15.0273 90.8484 14.9336 90.3797 14.9336C89.9344 14.9336 89.5633 15.0273 89.2664 15.2148C88.9695 15.4023 88.7313 15.668 88.5516 16.0117C88.3797 16.3477 88.2547 16.7422 88.1766 17.1953C88.0984 17.6406 88.0594 18.1211 88.0594 18.6367V19.082C88.0594 19.5742 88.1258 20.0234 88.2586 20.4297C88.3914 20.8359 88.5867 21.1836 88.8445 21.4727C89.1023 21.7617 89.4148 21.9883 89.782 22.1523C90.1492 22.3164 90.5672 22.3984 91.0359 22.3984C91.6141 22.3984 92.1648 22.2891 92.6883 22.0703C93.2117 21.8438 93.6648 21.4922 94.0477 21.0156L95.7586 22.9727C95.5008 23.3477 95.1375 23.7109 94.6688 24.0625C94.2078 24.4062 93.6531 24.6875 93.0047 24.9062C92.3563 25.125 91.6219 25.2344 90.8016 25.2344ZM100.324 14.9805V25H96.668V12.3203H100.102L100.324 14.9805ZM99.8555 18.2148L98.9297 18.2383C98.9297 17.3477 99.0352 16.5312 99.2461 15.7891C99.4648 15.0391 99.7812 14.3867 100.195 13.832C100.609 13.2773 101.121 12.8477 101.73 12.543C102.348 12.2383 103.059 12.0859 103.863 12.0859C104.426 12.0859 104.938 12.1719 105.398 12.3438C105.859 12.5078 106.254 12.7695 106.582 13.1289C106.918 13.4805 107.176 13.9414 107.355 14.5117C107.535 15.0742 107.625 15.75 107.625 16.5391V25H103.969V16.9844C103.969 16.4219 103.898 15.9961 103.758 15.707C103.625 15.4102 103.43 15.207 103.172 15.0977C102.914 14.9883 102.605 14.9336 102.246 14.9336C101.855 14.9336 101.508 15.0195 101.203 15.1914C100.906 15.3555 100.656 15.5859 100.453 15.8828C100.25 16.1797 100.098 16.5273 99.9961 16.9258C99.9023 17.3242 99.8555 17.7539 99.8555 18.2148ZM107.25 18.0273L106.09 18.1211C106.09 17.2617 106.191 16.4648 106.395 15.7305C106.598 14.9961 106.902 14.3594 107.309 13.8203C107.715 13.2734 108.219 12.8477 108.82 12.543C109.43 12.2383 110.137 12.0859 110.941 12.0859C111.535 12.0859 112.074 12.1719 112.559 12.3438C113.051 12.5156 113.473 12.793 113.824 13.1758C114.184 13.5586 114.461 14.0625 114.656 14.6875C114.852 15.3047 114.949 16.0625 114.949 16.9609V25H111.27V16.9609C111.27 16.4062 111.199 15.9844 111.059 15.6953C110.926 15.4062 110.73 15.207 110.473 15.0977C110.223 14.9883 109.922 14.9336 109.57 14.9336C109.18 14.9336 108.84 15.0156 108.551 15.1797C108.262 15.3359 108.02 15.5547 107.824 15.8359C107.629 16.1094 107.484 16.4336 107.391 16.8086C107.297 17.1836 107.25 17.5898 107.25 18.0273ZM120.054 12.3203V25H116.386V12.3203H120.054ZM116.163 9.03906C116.163 8.50781 116.351 8.07422 116.726 7.73828C117.101 7.39453 117.593 7.22266 118.202 7.22266C118.812 7.22266 119.304 7.39453 119.679 7.73828C120.062 8.07422 120.253 8.50781 120.253 9.03906C120.253 9.5625 120.062 9.99609 119.679 10.3398C119.304 10.6758 118.812 10.8438 118.202 10.8438C117.593 10.8438 117.101 10.6758 116.726 10.3398C116.351 9.99609 116.163 9.5625 116.163 9.03906ZM126.049 25H122.37V11.2422C122.37 10.2656 122.561 9.44531 122.944 8.78125C123.334 8.11719 123.885 7.61328 124.596 7.26953C125.307 6.92578 126.147 6.75391 127.116 6.75391C127.452 6.75391 127.764 6.77734 128.053 6.82422C128.35 6.86328 128.639 6.91797 128.92 6.98828V9.71875C128.772 9.67969 128.62 9.65234 128.463 9.63672C128.307 9.62109 128.12 9.61328 127.901 9.61328C127.51 9.61328 127.174 9.67578 126.893 9.80078C126.62 9.91797 126.409 10.1016 126.26 10.3516C126.12 10.5938 126.049 10.8906 126.049 11.2422V25ZM128.557 12.3203V14.8867H120.518V12.3203H128.557ZM132.759 23.5352L136.076 12.3203H140.013L134.916 26.8984C134.806 27.2188 134.658 27.5625 134.47 27.9297C134.291 28.2969 134.045 28.6484 133.732 28.9844C133.427 29.3203 133.037 29.5938 132.56 29.8047C132.084 30.0156 131.498 30.1211 130.802 30.1211C130.451 30.1211 130.177 30.1016 129.982 30.0625C129.795 30.0312 129.545 29.9766 129.232 29.8984L129.22 27.2383C129.322 27.2383 129.412 27.2383 129.49 27.2383C129.576 27.2461 129.662 27.25 129.748 27.25C130.185 27.25 130.537 27.2031 130.802 27.1094C131.076 27.0156 131.287 26.875 131.435 26.6875C131.591 26.5078 131.716 26.2773 131.81 25.9961L132.759 23.5352ZM131.646 12.3203L134.271 21.3438L134.716 25.2227L132.244 25.3516L127.709 12.3203H131.646Z" fill="white"/>
</svg>
