<svg width="36" height="35" viewBox="0 0 36 35" fill="none" xmlns="http://www.w3.org/2000/svg">
<path d="M17.8455 0C7.98992 0 0 7.83515 0 17.5001C0 27.1655 7.98992 35 17.8455 35C27.7022 35 35.6912 27.1655 35.6912 17.5001C35.6912 7.83578 27.7024 0 17.8455 0ZM26.0294 25.2402C25.9532 25.3625 25.8532 25.469 25.735 25.5534C25.6169 25.6378 25.4829 25.6986 25.3408 25.7321C25.1987 25.7657 25.0512 25.7715 24.9068 25.7491C24.7624 25.7267 24.6239 25.6766 24.4993 25.6017C20.3094 23.0919 15.0347 22.5235 8.82292 23.9153C8.53528 23.9794 8.23345 23.9289 7.98374 23.7749C7.73404 23.6209 7.55691 23.376 7.49127 23.094C7.45857 22.9543 7.45429 22.8098 7.47866 22.6685C7.50303 22.5272 7.55558 22.3921 7.63329 22.2707C7.711 22.1494 7.81236 22.0443 7.93155 21.9615C8.05074 21.8786 8.18542 21.8196 8.32789 21.7879C15.1257 20.2649 20.9568 20.9206 25.6607 23.7397C26.1849 24.0553 26.3511 24.7261 26.0294 25.2402ZM28.2136 20.4751C27.8109 21.1171 26.9542 21.3198 26.3 20.9248C21.5031 18.0334 14.1911 17.196 8.51734 18.885C7.78151 19.103 7.00434 18.6963 6.78101 17.9759C6.67445 17.6296 6.71228 17.256 6.88621 16.937C7.06014 16.618 7.35598 16.3797 7.70884 16.2742C14.1898 14.3458 22.2468 15.2799 27.7554 18.5995C28.4097 18.9945 28.6164 19.8344 28.2136 20.4751ZM28.4011 15.5132C22.6496 12.1631 13.1603 11.855 7.66899 13.4894C6.78719 13.7517 5.85467 13.2635 5.58744 12.3988C5.45895 11.9833 5.50397 11.5348 5.71261 11.1519C5.92125 10.769 6.27642 10.483 6.70003 10.3569C13.0037 8.48026 23.4828 8.84284 30.1046 12.6978C30.2934 12.8073 30.4582 12.9522 30.5897 13.1243C30.7213 13.2963 30.8169 13.4921 30.8711 13.7005C30.9254 13.9088 30.9372 14.1256 30.9058 14.3385C30.8745 14.5513 30.8007 14.756 30.6885 14.9408C30.2197 15.7186 29.1917 15.975 28.4011 15.5132Z" fill="white"/>
</svg>
